<svg xmlns="http://www.w3.org/2000/svg" viewBox="0 0 360 500" width="360" height="500" font-family="Inter, -apple-system, BlinkMacSystemFont, 'Segoe UI', sans-serif">
  <defs>
    <filter id="phone-shadow" x="-20%" y="-20%" width="140%" height="140%">
      <feDropShadow dx="0" dy="6" stdDeviation="10" flood-color="#000000" flood-opacity="0.07"/>
    </filter>
    <style>
      .mono { font-family: ui-monospace, 'SF Mono', Menlo, Consolas, monospace; }
      .label { font-size: 9.5px; fill: #71706c; letter-spacing: 1px; }
      .title { font-size: 13px; font-weight: 650; fill: #0b0b0a; }
      .tier { font-size: 9.5px; }
      .detail { font-size: 11px; fill: #71706c; }
      .path { fill: #10b981; }
      .recent { font-size: 11px; fill: #0b0b0a; }
      .recent-state { font-size: 10px; }
    </style>
  </defs>

  <rect x="20" y="14" width="320" height="472" rx="18" fill="#ffffff" stroke="#e7e5e0" filter="url(#phone-shadow)"/>

  <text x="36" y="42" class="mono" font-size="14" font-weight="600" fill="#0b0b0a">ok<tspan fill="#10b981">ed</tspan></text>
  <rect x="296" y="24" width="28" height="28" rx="7" fill="#ecfdf5"/>
  <text x="310" y="43.5" text-anchor="middle" font-size="13">🔔</text>
  <line x1="36" y1="64" x2="324" y2="64" stroke="#e7e5e0"/>

  <text x="36" y="84" class="mono label">PENDING APPROVAL</text>
  <rect x="36" y="94" width="288" height="172" rx="10" fill="#ecfdf5" stroke="#10b981" stroke-width="1.5"/>

  <g id="card-create-payment">
    <animate attributeName="opacity" values="1;1;0;0;0;0;0;0;0;0;0;1" keyTimes="0;.118;.167;.285;.334;.452;.501;.619;.668;.786;.835;1" calcMode="discrete" dur="10.2s" repeatCount="indefinite"/>
    <animateTransform attributeName="transform" type="translate" values="0 0;0 0;0 -4;0 4;0 0" keyTimes="0;.118;.142;.167;1" dur="10.2s" repeatCount="indefinite"/>
    <rect x="48" y="106" width="30" height="30" rx="8" fill="#fee2e2"/>
    <text x="63" y="127" text-anchor="middle" font-size="14">💳</text>
    <text x="86" y="120" class="title">Create payment</text>
    <rect x="86" y="127" width="72" height="14" rx="3" fill="#fee2e2"/>
    <text x="91" y="137" class="mono tier" fill="#dc2626">high stakes</text>
    <rect x="48" y="150" width="264" height="48" rx="6" fill="#ffffff" stroke="#e7e5e0"/>
    <text x="58" y="168" class="mono detail">Transfer <tspan class="path">2,400 EUR</tspan></text>
    <text x="58" y="184" class="mono detail">to vendor@company.com</text>
  </g>

  <g id="card-send-email" opacity="0">
    <animate attributeName="opacity" values="0;0;1;1;0;0;0;0;0;0;0;0" keyTimes="0;.118;.167;.285;.334;.452;.501;.619;.668;.786;.835;1" calcMode="discrete" dur="10.2s" repeatCount="indefinite"/>
    <animateTransform attributeName="transform" type="translate" values="0 4;0 0;0 0;0 -4;0 4;0 4" keyTimes="0;.167;.285;.309;.334;1" dur="10.2s" repeatCount="indefinite"/>
    <rect x="48" y="106" width="30" height="30" rx="8" fill="#fee2e2"/>
    <text x="63" y="127" text-anchor="middle" font-size="14">✉️</text>
    <text x="86" y="120" class="title">Send email</text>
    <rect x="86" y="127" width="48" height="14" rx="3" fill="#fef3c7"/>
    <text x="91" y="137" class="mono tier" fill="#92400e">normal</text>
    <rect x="48" y="150" width="264" height="48" rx="6" fill="#ffffff" stroke="#e7e5e0"/>
    <text x="58" y="168" class="mono detail">To: investors@...</text>
    <text x="58" y="184" class="mono detail">"Q2 results attached"</text>
  </g>

  <g id="card-delete-file" opacity="0">
    <animate attributeName="opacity" values="0;0;0;0;1;1;0;0;0;0;0;0" keyTimes="0;.118;.167;.285;.334;.452;.501;.619;.668;.786;.835;1" calcMode="discrete" dur="10.2s" repeatCount="indefinite"/>
    <animateTransform attributeName="transform" type="translate" values="0 4;0 4;0 0;0 0;0 -4;0 4" keyTimes="0;.334;.452;.476;.501;1" dur="10.2s" repeatCount="indefinite"/>
    <rect x="48" y="106" width="30" height="30" rx="8" fill="#fee2e2"/>
    <text x="63" y="127" text-anchor="middle" font-size="14">🗑️</text>
    <text x="86" y="120" class="title">Delete file</text>
    <rect x="86" y="127" width="72" height="14" rx="3" fill="#fee2e2"/>
    <text x="91" y="137" class="mono tier" fill="#dc2626">high stakes</text>
    <rect x="48" y="150" width="264" height="48" rx="6" fill="#ffffff" stroke="#e7e5e0"/>
    <text x="58" y="176" class="mono detail"><tspan class="path">rm -rf</tspan> ./prod-backups/2026-04</text>
  </g>

  <g id="card-force-push" opacity="0">
    <animate attributeName="opacity" values="0;0;0;0;0;0;1;1;0;0;0;0" keyTimes="0;.118;.167;.285;.334;.452;.501;.619;.668;.786;.835;1" calcMode="discrete" dur="10.2s" repeatCount="indefinite"/>
    <animateTransform attributeName="transform" type="translate" values="0 4;0 4;0 0;0 0;0 -4;0 4" keyTimes="0;.501;.619;.643;.668;1" dur="10.2s" repeatCount="indefinite"/>
    <rect x="48" y="106" width="30" height="30" rx="8" fill="#fee2e2"/>
    <text x="63" y="127" text-anchor="middle" font-size="14">🔀</text>
    <text x="86" y="120" class="title">Git push --force</text>
    <rect x="86" y="127" width="72" height="14" rx="3" fill="#fee2e2"/>
    <text x="91" y="137" class="mono tier" fill="#dc2626">high stakes</text>
    <rect x="48" y="150" width="264" height="48" rx="6" fill="#ffffff" stroke="#e7e5e0"/>
    <text x="58" y="176" class="mono detail">origin/main &lt;- rewrite <tspan class="path">14 commits</tspan></text>
  </g>

  <g id="card-calendar-event" opacity="0">
    <animate attributeName="opacity" values="0;0;0;0;0;0;0;0;1;1;0;0" keyTimes="0;.118;.167;.285;.334;.452;.501;.619;.668;.786;.835;1" calcMode="discrete" dur="10.2s" repeatCount="indefinite"/>
    <animateTransform attributeName="transform" type="translate" values="0 4;0 4;0 0;0 0;0 -4;0 4" keyTimes="0;.668;.786;.810;.835;1" dur="10.2s" repeatCount="indefinite"/>
    <rect x="48" y="106" width="30" height="30" rx="8" fill="#fee2e2"/>
    <text x="63" y="127" text-anchor="middle" font-size="14">📅</text>
    <text x="86" y="120" class="title">Create calendar event</text>
    <rect x="86" y="127" width="48" height="14" rx="3" fill="#fef3c7"/>
    <text x="91" y="137" class="mono tier" fill="#92400e">normal</text>
    <rect x="48" y="150" width="264" height="48" rx="6" fill="#ffffff" stroke="#e7e5e0"/>
    <text x="58" y="168" class="mono detail">"Board sync" - Fri 3pm</text>
    <text x="58" y="184" class="mono detail"><tspan class="path">6 attendees</tspan></text>
  </g>

  <g id="card-drop-table" opacity="0">
    <animate attributeName="opacity" values="0;0;0;0;0;0;0;0;0;0;1;1" keyTimes="0;.118;.167;.285;.334;.452;.501;.619;.668;.786;.835;1" calcMode="discrete" dur="10.2s" repeatCount="indefinite"/>
    <animateTransform attributeName="transform" type="translate" values="0 4;0 4;0 0;0 0" keyTimes="0;.835;.953;1" dur="10.2s" repeatCount="indefinite"/>
    <rect x="48" y="106" width="30" height="30" rx="8" fill="#fee2e2"/>
    <text x="63" y="127" text-anchor="middle" font-size="14">🗄️</text>
    <text x="86" y="120" class="title">Drop database table</text>
    <rect x="86" y="127" width="72" height="14" rx="3" fill="#fee2e2"/>
    <text x="91" y="137" class="mono tier" fill="#dc2626">high stakes</text>
    <rect x="48" y="150" width="264" height="48" rx="6" fill="#ffffff" stroke="#e7e5e0"/>
    <text x="58" y="168" class="mono detail"><tspan class="path">DROP TABLE users</tspan></text>
    <text x="58" y="184" class="mono detail">12,400 rows</text>
  </g>

  <rect x="48" y="216" width="124" height="36" rx="7" fill="#10b981"/>
  <text x="110" y="239" text-anchor="middle" font-size="12.5" font-weight="600" fill="#ffffff">Approve</text>
  <rect x="188" y="216" width="124" height="36" rx="7" fill="#ffffff" stroke="#e7e5e0"/>
  <text x="250" y="239" text-anchor="middle" font-size="12.5" fill="#71706c">Deny</text>

  <rect x="36" y="280" width="288" height="32" rx="7" fill="#fef3c7" stroke="#fde68a"/>
  <circle cx="50" cy="296" r="3" fill="#92400e">
    <animate attributeName="opacity" values="1;.25;1" dur="1.5s" repeatCount="indefinite"/>
  </circle>
  <text x="62" y="300" class="mono" font-size="10.5" fill="#92400e">agent waiting...</text>

  <text x="36" y="334" class="mono label">RECENT</text>
  <text x="36" y="358" class="mono recent">send_email</text>
  <text x="324" y="358" text-anchor="end" class="mono recent-state" fill="#10b981">approved</text>
  <line x1="36" y1="370" x2="324" y2="370" stroke="#f5f4f0"/>
  <text x="36" y="388" class="mono recent">git push --force</text>
  <text x="324" y="388" text-anchor="end" class="mono recent-state" fill="#dc2626">denied</text>
  <line x1="36" y1="400" x2="324" y2="400" stroke="#f5f4f0"/>
  <text x="36" y="418" class="mono recent">delete_file</text>
  <text x="324" y="418" text-anchor="end" class="mono recent-state" fill="#10b981">approved</text>
</svg>
